<?xml version="1.0" encoding="UTF-8"?><svg xmlns="http://www.w3.org/2000/svg" viewBox="0 0 500 500"><defs><style>.d{fill:#fff;}.e{fill:#0a0944;}.f{fill:#00ff7f;}</style></defs><g id="a"/><g id="b"><g id="c"><rect class="e" width="500" height="500" rx="78.41" ry="78.41"/><g><path class="d" d="M261.34,75h-97.08c-13.31,0-20.21,7.4-20.21,20.7v34.01h106.45c36.48,0,57.68,23.17,57.68,59.16s-21.2,60.14-58.66,60.14h-105.46v155.28c0,13.8,6.9,20.7,20.21,20.7h22.68c13.31,0,20.21-6.9,20.21-20.7v-100.07h54.19c65.56,0,111.41-47.32,111.41-115.35s-45.85-113.87-111.41-113.87Z"/><path class="f" d="M173.67,197.31v-14.49c0-13.04,6.76-20.28,19.8-20.28h54.73c13.05,0,20.29,7.24,20.29,20.28v14.49c0,13.05-7.24,19.81-20.29,19.81h-54.73c-13.04,0-19.8-6.76-19.8-19.81Z"/></g></g></g></svg>